<svg width="275" height="150" viewBox="0 0 275 150" fill="none" xmlns="http://www.w3.org/2000/svg">
<path d="M275.001 0H225.001C197.376 0 175 22.375 175 50C175 77.6251 197.376 100 225.001 100C252.626 100 275.001 77.6251 275.001 50C275.001 40.875 272.501 32.375 268.251 25H275.001V0ZM250.001 50C250.001 63.75 238.751 75.0001 225.001 75.0001C211.251 75.0001 200.001 63.75 200.001 50C200.001 36.25 211.251 25 225.001 25C238.751 25 250.001 36.25 250.001 50Z" fill="#001923"/>
<path d="M125 0C110 0 96.6251 6.50001 87.5001 17C78.3751 6.50001 65 0 50 0C22.375 0 0 22.375 0 50C0 77.6251 22.375 100 50 100C59.125 100 67.625 97.5001 75.0001 93.2501V100H100V50C100 36.25 111.25 25 125 25C138.75 25 150 36.25 150 50V100H175V50C175 22.375 152.625 0 125 0ZM50 75.0001C36.25 75.0001 25 63.75 25 50C25 36.25 36.25 25 50 25C63.75 25 75.0001 36.25 75.0001 50C75.0001 63.75 63.75 75.0001 50 75.0001Z" fill="#001923"/>
<path d="M225.001 125C211.251 125 200.001 113.75 200.001 100H175C175 127.625 197.376 150 225.001 150C252.626 150 275.001 127.625 275.001 100H250.001C250.001 113.75 238.751 125 225.001 125Z" fill="#001923"/>
</svg>
