<svg xmlns="http://www.w3.org/2000/svg" viewBox="0 0 643.18 200"><g id="Capa_2" data-name="Capa 2"><g id="Capa_5" data-name="Capa 5"><circle cx="270" cy="50" r="50"/><path d="M50,0a50,50,0,0,0,0,100H95a5,5,0,0,0,5-5V50A50,50,0,0,0,50,0Z"/><path d="M204.93,99.73a5,5,0,0,0,5-5V52.59c0-.86.07-1.72.07-2.59a50,50,0,0,0-100-.27h-.08v45a5,5,0,0,0,5,5Z"/><path d="M270,100a50,50,0,1,0,50,50A50,50,0,0,0,270,100Zm20,55H275v15a5,5,0,0,1-10,0V155H250a5,5,0,0,1,0-10h15V130a5,5,0,0,1,10,0v15h15a5,5,0,0,1,0,10Z"/><path d="M354.7,10h8.41l14.7,40h-8.14l-3.23-9.55H351.36L348.14,50H340ZM364,33.52l-3.5-10-1.42-4.86h-.43l-1.43,4.86-3.49,10Z"/><path d="M391,26h.44a9.25,9.25,0,0,1,3.39-3.3,9.63,9.63,0,0,1,4.86-1.21,10.94,10.94,0,0,1,4.43.84,8.17,8.17,0,0,1,3.14,2.4,10.66,10.66,0,0,1,1.86,3.72,17.26,17.26,0,0,1,.63,4.82V50h-7.16V34.16a6.45,6.45,0,0,0-1.29-4.42,4.74,4.74,0,0,0-3.74-1.44,5,5,0,0,0-2.59.65A6.12,6.12,0,0,0,393,30.69a8.19,8.19,0,0,0-1.2,2.6,12,12,0,0,0-.41,3.18V50h-7.16V22.38H391Z"/><path d="M430.42,63.14a15.68,15.68,0,0,1-5.05-.76,14.1,14.1,0,0,1-3.85-2,12.94,12.94,0,0,1-2.74-2.68,10.86,10.86,0,0,1-1.58-2.94L424,52a7,7,0,0,0,11.75,2.36,9.25,9.25,0,0,0,2-6.25V46.15h-.43A8.91,8.91,0,0,1,434,49a10.58,10.58,0,0,1-4.83,1,11.45,11.45,0,0,1-4.68-1,12.3,12.3,0,0,1-4-2.88,14.88,14.88,0,0,1-2.84-4.5,15.16,15.16,0,0,1-1.1-5.87,15.35,15.35,0,0,1,1.1-5.9,14.79,14.79,0,0,1,2.84-4.53,12.16,12.16,0,0,1,4-2.88,11.45,11.45,0,0,1,4.68-1,10.46,10.46,0,0,1,4.83,1,8.91,8.91,0,0,1,3.31,2.85h.43v-3h6.83V48.07a17.77,17.77,0,0,1-1,6.29,13.63,13.63,0,0,1-2.89,4.74,12.43,12.43,0,0,1-4.45,3A15.28,15.28,0,0,1,430.42,63.14Zm.28-19.76a7.18,7.18,0,0,0,2.59-.5,6.53,6.53,0,0,0,2.27-1.47A7.33,7.33,0,0,0,437.14,39a8.21,8.21,0,0,0,.6-3.24,8.44,8.44,0,0,0-.6-3.27,7.26,7.26,0,0,0-1.58-2.41,6.53,6.53,0,0,0-2.27-1.47,7,7,0,0,0-2.59-.5,6.72,6.72,0,0,0-2.57.5,6.42,6.42,0,0,0-2.24,1.49,7.66,7.66,0,0,0-1.59,2.41,8.3,8.3,0,0,0-.6,3.25,8.21,8.21,0,0,0,.6,3.24,7.2,7.2,0,0,0,1.59,2.38,6.51,6.51,0,0,0,2.24,1.47A6.91,6.91,0,0,0,430.7,43.38Z"/><path d="M471.67,45.63h-.43a9.12,9.12,0,0,1-3.39,3.19A9.93,9.93,0,0,1,463,50c-3.39,0-5.92-1-7.57-3.12a12.89,12.89,0,0,1-2.49-8.3V22.35h7.16V37.7A6.2,6.2,0,0,0,461.37,42a4.86,4.86,0,0,0,3.75,1.4,5.2,5.2,0,0,0,2.59-.63,6,6,0,0,0,1.91-1.7,7.71,7.71,0,0,0,1.21-2.51,11.37,11.37,0,0,0,.41-3.09V22.35h7.15V50h-6.72Z"/><path d="M487.24,50V10h7.16V50Z"/><path d="M523.25,24.4q-3.29-2.92-9.51-2.92a14.08,14.08,0,0,0-11.64,5.35l5.19,3.55a7.89,7.89,0,0,1,6.29-3.11,6.41,6.41,0,0,1,4.21,1.39,4.39,4.39,0,0,1,1.69,3.52V33a20.87,20.87,0,0,0-2.79-.84,18.44,18.44,0,0,0-4.31-.41,14.38,14.38,0,0,0-4.35.63,10.46,10.46,0,0,0-3.47,1.83,8.23,8.23,0,0,0-3.11,6.61,8.89,8.89,0,0,0,.76,3.71,8.43,8.43,0,0,0,2.13,2.9,10.09,10.09,0,0,0,3.2,1.88,11,11,0,0,0,3.91.69A8.58,8.58,0,0,0,516,48.9a12,12,0,0,0,3-2.62h.44V50h7V33.06C526.53,29.23,525.43,26.35,523.25,24.4ZM519,40.57a6,6,0,0,1-1.31,2A6.62,6.62,0,0,1,513,44.42a5.08,5.08,0,0,1-3.09-1,3.1,3.1,0,0,1-1.33-2.62A3.41,3.41,0,0,1,510,38.06a6.16,6.16,0,0,1,4-1.12,11.63,11.63,0,0,1,2.92.35,15,15,0,0,1,2.6,1A6,6,0,0,1,519,40.57Z"/><path d="M534.94,22.38h6.72v3.83h.44a7,7,0,0,1,1.31-1.86,9.37,9.37,0,0,1,1.83-1.47,10.12,10.12,0,0,1,2.18-1,7.67,7.67,0,0,1,2.33-.38,8.3,8.3,0,0,1,2.43.31,6.24,6.24,0,0,1,1.72.81L552,29.2a6.4,6.4,0,0,0-1.45-.54,8.31,8.31,0,0,0-1.94-.19,5.92,5.92,0,0,0-2.68.59,6,6,0,0,0-2,1.67,8.14,8.14,0,0,0-1.31,2.52,10.3,10.3,0,0,0-.46,3.15V50h-7.16Z"/><path d="M340,80h13.22a22.71,22.71,0,0,1,8.35,1.45,17.53,17.53,0,0,1,10.35,10.44,22.64,22.64,0,0,1,1.39,8.09,22.91,22.91,0,0,1-1.39,8.16,17.66,17.66,0,0,1-4,6.3,18.22,18.22,0,0,1-6.34,4.08,22.71,22.71,0,0,1-8.35,1.45H340Zm12.89,32.83a16,16,0,0,0,5.68-.93,10.9,10.9,0,0,0,4.09-2.59,10.56,10.56,0,0,0,2.46-4,17.38,17.38,0,0,0,0-10.55,10.56,10.56,0,0,0-2.46-4,11,11,0,0,0-4.09-2.6,16.23,16.23,0,0,0-5.68-.92h-5.52v25.69Z"/><path d="M385.11,88.77a4.25,4.25,0,0,1-1.69-.34,4.31,4.31,0,0,1-1.4-.94,4.48,4.48,0,0,1-.93-1.38,4.23,4.23,0,0,1-.34-1.72,4.27,4.27,0,0,1,.34-1.73,4.37,4.37,0,0,1,4-2.66,4.31,4.31,0,0,1,3.12,1.28,4.38,4.38,0,0,1,0,6.21A4.27,4.27,0,0,1,385.11,88.77Z"/><rect x="381.56" y="92.37" width="7.15" height="27.63"/><path d="M408.59,120a15.59,15.59,0,0,1-4.67-.65,13.17,13.17,0,0,1-3.55-1.72,11.43,11.43,0,0,1-2.54-2.46,11.88,11.88,0,0,1-1.58-2.81l6.39-2.73a6.89,6.89,0,0,0,2.49,3.08,6.15,6.15,0,0,0,3.46,1,5.86,5.86,0,0,0,3.12-.71,2,2,0,0,0,1.14-1.69,2.11,2.11,0,0,0-1-1.78,10,10,0,0,0-3.31-1.22l-3.77-.82a13.91,13.91,0,0,1-2.59-.88,10.18,10.18,0,0,1-2.43-1.53,7.6,7.6,0,0,1-1.8-2.24,6.22,6.22,0,0,1-.71-3,7.16,7.16,0,0,1,.84-3.5,7.88,7.88,0,0,1,2.33-2.59,11,11,0,0,1,3.46-1.64,15.55,15.55,0,0,1,4.29-.58A15.08,15.08,0,0,1,415,93a9.26,9.26,0,0,1,4.42,4.77l-6.17,2.52a4.77,4.77,0,0,0-2.24-2.3,6.8,6.8,0,0,0-2.95-.71,5.43,5.43,0,0,0-2.67.63,1.84,1.84,0,0,0-1.15,1.61,1.67,1.67,0,0,0,1,1.48,11.39,11.39,0,0,0,2.6,1l4.09,1A11.9,11.9,0,0,1,418,106.1a7.28,7.28,0,0,1,2,5.11,7.19,7.19,0,0,1-.82,3.33,9,9,0,0,1-2.32,2.81,11.33,11.33,0,0,1-3.61,1.94A14.35,14.35,0,0,1,408.59,120Z"/><path d="M452.72,112.68a14.87,14.87,0,0,1-5,5.3,13.85,13.85,0,0,1-7.67,2,14.72,14.72,0,0,1-5.65-1.06,13.53,13.53,0,0,1-7.49-7.48,14.92,14.92,0,0,1-1.06-5.71,14.69,14.69,0,0,1,1-5.49,13.87,13.87,0,0,1,2.89-4.53,14,14,0,0,1,4.4-3.09,13.51,13.51,0,0,1,5.6-1.15,14.56,14.56,0,0,1,5.73,1.07,11.72,11.72,0,0,1,4.21,3,12.72,12.72,0,0,1,2.56,4.45,17,17,0,0,1,.88,5.57v.66a3.21,3.21,0,0,0-.06.6,3.64,3.64,0,0,0-.05.6H432.9a7.32,7.32,0,0,0,.9,2.81,6.87,6.87,0,0,0,1.69,2,6.55,6.55,0,0,0,2.21,1.14,8.52,8.52,0,0,0,2.46.36,7,7,0,0,0,4.07-1.12,8.33,8.33,0,0,0,2.54-2.81Zm-6.5-10.37a4.87,4.87,0,0,0-.46-1.59,5.86,5.86,0,0,0-1.2-1.63,6.41,6.41,0,0,0-2-1.26,7.21,7.21,0,0,0-2.81-.49,6.55,6.55,0,0,0-4,1.31,6.89,6.89,0,0,0-2.45,3.66Z"/><path d="M467.19,96h.44A9.15,9.15,0,0,1,471,92.71a9.61,9.61,0,0,1,4.86-1.22,10.92,10.92,0,0,1,4.42.85,8.15,8.15,0,0,1,3.14,2.39,10.83,10.83,0,0,1,1.86,3.72,17.65,17.65,0,0,1,.62,4.82V120h-7.15V104.17a6.52,6.52,0,0,0-1.28-4.42,4.77,4.77,0,0,0-3.74-1.44,5.12,5.12,0,0,0-2.6.65,6.11,6.11,0,0,0-1.91,1.75,7.83,7.83,0,0,0-1.2,2.59,12,12,0,0,0-.41,3.18V120h-7.16V92.4h6.72Z"/><path d="M476.91,87.76a6.19,6.19,0,0,1-2.13-.36,10.64,10.64,0,0,1-1.8-.84l-1.47-.8a2.57,2.57,0,0,0-1.15-.35c-.91,0-1.38.53-1.42,1.58h-5a8.55,8.55,0,0,1,.51-3.11,6,6,0,0,1,1.42-2.16,6.46,6.46,0,0,1,2-1.28,6.53,6.53,0,0,1,2.38-.44,6.4,6.4,0,0,1,2.16.36,12.91,12.91,0,0,1,1.83.79c.54.33,1,.61,1.47.85a2.51,2.51,0,0,0,1.09.35c.88,0,1.37-.53,1.48-1.58h5a8.12,8.12,0,0,1-.54,3.11A6.6,6.6,0,0,1,481.34,86a6,6,0,0,1-2,1.28A6.81,6.81,0,0,1,476.91,87.76Z"/><path d="M507.22,91.49a14.89,14.89,0,0,1,5.71,1.07,13.25,13.25,0,0,1,7.43,7.45,16,16,0,0,1,0,11.47,13.23,13.23,0,0,1-7.43,7.46,15.88,15.88,0,0,1-11.41,0,13.23,13.23,0,0,1-7.43-7.46,15.9,15.9,0,0,1,0-11.47,13.25,13.25,0,0,1,7.43-7.45A14.87,14.87,0,0,1,507.22,91.49Zm0,21.9a7.1,7.1,0,0,0,2.65-.51,6.79,6.79,0,0,0,2.27-1.51,7.05,7.05,0,0,0,1.55-2.4,9.23,9.23,0,0,0,0-6.44,7.2,7.2,0,0,0-1.55-2.41,6.91,6.91,0,0,0-2.27-1.5,7.11,7.11,0,0,0-2.65-.52,7,7,0,0,0-2.67.52,6.89,6.89,0,0,0-2.24,1.5,7.07,7.07,0,0,0-1.56,2.41,9.38,9.38,0,0,0,0,6.44,6.93,6.93,0,0,0,1.56,2.4,6.76,6.76,0,0,0,2.24,1.51A7,7,0,0,0,507.22,113.39Z"/><path d="M557.65,114.09a3.16,3.16,0,0,1-.92-2.32v-8.5h-8.5a3.12,3.12,0,0,1-2.32-1A3.28,3.28,0,0,1,545,100a3.15,3.15,0,0,1,3.24-3.24h8.5v-8.5a3,3,0,0,1,1-2.28,3.19,3.19,0,0,1,5.48,2.28v8.5h8.51a3.18,3.18,0,0,1,2.31,1,3.2,3.2,0,0,1,0,4.63,3.21,3.21,0,0,1-2.31,1H563.2v8.5A3.15,3.15,0,0,1,560,115,3.16,3.16,0,0,1,557.65,114.09Z"/><path d="M339.94,150h7.37v40h-7.37Z"/><path d="M363.75,166h.44a9.22,9.22,0,0,1,3.38-3.3,9.75,9.75,0,0,1,4.87-1.21,10.76,10.76,0,0,1,4.42.85,8.15,8.15,0,0,1,3.14,2.39,10.66,10.66,0,0,1,1.86,3.72,17.26,17.26,0,0,1,.63,4.82V190h-7.16V174.17a6.5,6.5,0,0,0-1.28-4.42,4.77,4.77,0,0,0-3.74-1.44,5.12,5.12,0,0,0-2.6.65,6.08,6.08,0,0,0-1.91,1.74,8,8,0,0,0-1.2,2.6,11.64,11.64,0,0,0-.41,3.18V190H357V162.39h6.72Z"/><path d="M392.7,168.48H388v-6.11h4.7v-8.2h7.15v8.2h6.56v6.11h-6.56v10.7A8.14,8.14,0,0,0,400,181a3,3,0,0,0,.74,1.38,2.72,2.72,0,0,0,2.19.9,4.48,4.48,0,0,0,1.47-.19,4.6,4.6,0,0,0,1-.52l2,6.28a11.9,11.9,0,0,1-2.7.9,15.82,15.82,0,0,1-3.2.3,9.67,9.67,0,0,1-3.63-.64,7.65,7.65,0,0,1-2.7-1.75c-1.72-1.68-2.57-4.06-2.57-7.14Z"/><path d="M439.45,182.68a15,15,0,0,1-5,5.3,13.85,13.85,0,0,1-7.67,2,14.72,14.72,0,0,1-5.65-1.06,13.5,13.5,0,0,1-7.49-7.49,14.84,14.84,0,0,1-1.06-5.7,14.69,14.69,0,0,1,1-5.49,13.76,13.76,0,0,1,7.29-7.62,13.36,13.36,0,0,1,5.6-1.15,14.53,14.53,0,0,1,5.73,1.07,11.64,11.64,0,0,1,4.21,2.95A12.74,12.74,0,0,1,439,170a17.25,17.25,0,0,1,.87,5.57v.65a3.38,3.38,0,0,0-.06.6,3.86,3.86,0,0,0-.05.61H419.63a7.32,7.32,0,0,0,.9,2.81,6.7,6.7,0,0,0,1.69,2,6.4,6.4,0,0,0,2.21,1.15,8.52,8.52,0,0,0,2.46.36,7,7,0,0,0,4.07-1.12,8.27,8.27,0,0,0,2.54-2.82ZM433,172.31a4.52,4.52,0,0,0-.46-1.59,5.7,5.7,0,0,0-1.2-1.64,6.21,6.21,0,0,0-2-1.25,7.21,7.21,0,0,0-2.81-.49,6.5,6.5,0,0,0-4,1.31,6.85,6.85,0,0,0-2.46,3.66Z"/><path d="M447.21,162.39h6.72v3.83h.43a7.33,7.33,0,0,1,1.31-1.85,9.65,9.65,0,0,1,1.83-1.48,10.17,10.17,0,0,1,2.19-1,7.33,7.33,0,0,1,2.32-.39,8.18,8.18,0,0,1,2.43.32,5.71,5.71,0,0,1,1.72.81l-1.91,6.59a6.9,6.9,0,0,0-1.45-.53,7.71,7.71,0,0,0-1.94-.2,5.82,5.82,0,0,0-4.72,2.26,7.88,7.88,0,0,0-1.31,2.53,10.18,10.18,0,0,0-.47,3.14V190h-7.15Z"/><path d="M487.57,186.29h-.44a11.84,11.84,0,0,1-3,2.62,8.55,8.55,0,0,1-4.56,1.09,11.18,11.18,0,0,1-3.9-.68,10.28,10.28,0,0,1-3.2-1.88,8.53,8.53,0,0,1-2.13-2.9,8.92,8.92,0,0,1-.76-3.71,8.27,8.27,0,0,1,3.11-6.61,10.36,10.36,0,0,1,3.47-1.83,14.31,14.31,0,0,1,4.34-.63,19,19,0,0,1,4.32.41,21,21,0,0,1,2.78.85v-.82a4.38,4.38,0,0,0-1.69-3.53,6.45,6.45,0,0,0-4.21-1.39,7.87,7.87,0,0,0-6.28,3.11l-5.19-3.55a14.09,14.09,0,0,1,11.64-5.35q6.23,0,9.5,2.92c2.18,2,3.28,4.84,3.28,8.66V190h-7.05Zm0-8a15.22,15.22,0,0,0-2.59-1,11.77,11.77,0,0,0-2.93-.35,6.11,6.11,0,0,0-3.95,1.12,3.42,3.42,0,0,0-1.4,2.76,3.11,3.11,0,0,0,1.34,2.62,5.1,5.1,0,0,0,3.09,1,6.49,6.49,0,0,0,2.62-.52,6.55,6.55,0,0,0,2.05-1.36,6.12,6.12,0,0,0,1.31-2A6,6,0,0,0,487.57,178.26Z"/><path d="M528.15,182.3a14.86,14.86,0,0,1-4.89,5.55,13.55,13.55,0,0,1-7.83,2.15,14.89,14.89,0,0,1-5.71-1.06,13.27,13.27,0,0,1-4.48-3,13.73,13.73,0,0,1-2.95-4.51,14.84,14.84,0,0,1-1.06-5.7,15.11,15.11,0,0,1,1.06-5.74,13.28,13.28,0,0,1,2.95-4.5,13.49,13.49,0,0,1,4.48-2.95,14.89,14.89,0,0,1,5.71-1.07,13.69,13.69,0,0,1,7.81,2.13,12.6,12.6,0,0,1,4.64,5.52l-6.55,2.73a7,7,0,0,0-2.38-2.81,6.43,6.43,0,0,0-3.63-1,6.56,6.56,0,0,0-2.68.55,6.83,6.83,0,0,0-3.71,3.93,9.38,9.38,0,0,0,0,6.33,6.94,6.94,0,0,0,1.5,2.41,7.06,7.06,0,0,0,2.21,1.53,7.32,7.32,0,0,0,6.47-.47,7,7,0,0,0,2.49-2.92Z"/><path d="M560.38,182.3a15,15,0,0,1-4.89,5.55,13.59,13.59,0,0,1-7.84,2.15,14.84,14.84,0,0,1-5.7-1.06,13.17,13.17,0,0,1-4.48-3,13.73,13.73,0,0,1-3-4.51,14.84,14.84,0,0,1-1.07-5.7,15.12,15.12,0,0,1,1.07-5.74,13.25,13.25,0,0,1,7.43-7.45,14.84,14.84,0,0,1,5.7-1.07,13.67,13.67,0,0,1,7.81,2.13,12.68,12.68,0,0,1,4.65,5.52l-6.56,2.73a7,7,0,0,0-2.37-2.81,7.11,7.11,0,0,0-6.31-.41,6.65,6.65,0,0,0-2.21,1.53,7,7,0,0,0-1.51,2.4,9.55,9.55,0,0,0,0,6.33,7.11,7.11,0,0,0,1.51,2.41,7,7,0,0,0,2.21,1.53,6.67,6.67,0,0,0,2.67.54,6.78,6.78,0,0,0,3.8-1,6.9,6.9,0,0,0,2.48-2.92Z"/><path d="M571.47,158.77a4.25,4.25,0,0,1-1.69-.34,4.21,4.21,0,0,1-1.4-.94,4.31,4.31,0,0,1-.93-1.38,4.23,4.23,0,0,1-.34-1.72,4.32,4.32,0,0,1,1.27-3.11,4.37,4.37,0,0,1,1.4-.94,4.43,4.43,0,0,1,1.69-.34,4.27,4.27,0,0,1,3.11,1.28,4.36,4.36,0,0,1,0,6.21A4.23,4.23,0,0,1,571.47,158.77Z"/><rect x="567.92" y="162.37" width="7.15" height="27.64"/><path d="M609.89,170a13.25,13.25,0,0,0-7.43-7.45,15.74,15.74,0,0,0-11.41,0,13.25,13.25,0,0,0-7.43,7.45,15.9,15.9,0,0,0,0,11.47,13.23,13.23,0,0,0,7.43,7.46,15.88,15.88,0,0,0,11.41,0,13.23,13.23,0,0,0,7.43-7.46,15.9,15.9,0,0,0,0-11.47Zm-6.66,9a7.07,7.07,0,0,1-1.56,2.4,6.52,6.52,0,0,1-2.27,1.5,7.06,7.06,0,0,1-5.32,0,6.59,6.59,0,0,1-2.24-1.5,6.93,6.93,0,0,1-1.56-2.4,9.41,9.41,0,0,1,0-6.45,7.12,7.12,0,0,1,1.56-2.4,7,7,0,0,1,7.56-1.5,6.81,6.81,0,0,1,2.27,1.5,7.27,7.27,0,0,1,1.56,2.4,9.41,9.41,0,0,1,0,6.45Z"/><polygon points="593.64 157.43 595.94 150 604.29 150 599.38 157.43 593.64 157.43"/><path d="M624.45,166h.43a9.25,9.25,0,0,1,3.39-3.3,9.73,9.73,0,0,1,4.86-1.21,10.77,10.77,0,0,1,4.43.85,8.15,8.15,0,0,1,3.14,2.39,10.64,10.64,0,0,1,1.85,3.72,17.26,17.26,0,0,1,.63,4.82V190H636V174.17a6.45,6.45,0,0,0-1.29-4.42,4.74,4.74,0,0,0-3.74-1.44,5.08,5.08,0,0,0-2.59.65,6.12,6.12,0,0,0-1.92,1.74,8.41,8.41,0,0,0-1.2,2.6,12,12,0,0,0-.41,3.18V190h-7.15V162.39h6.72Z"/></g></g></svg>